<?xml version="1.0" standalone="no"?>
<!DOCTYPE svg PUBLIC "-//W3C//DTD SVG 20010904//EN"
 "http://www.w3.org/TR/2001/REC-SVG-20010904/DTD/svg10.dtd">
<svg version="1.0" xmlns="http://www.w3.org/2000/svg"
 width="500.000000pt" height="500.000000pt" viewBox="0 0 500.000000 500.000000"
 preserveAspectRatio="xMidYMid meet">
<metadata>
Created by potrace 1.14, written by Peter Selinger 2001-2017
</metadata>
<g transform="translate(0.000000,500.000000) scale(0.100000,-0.100000)"
fill="#000000" stroke="none">
<path d="M4120 3638 c-31 -16 -52 -36 -68 -65 l-23 -42 31 -16 c27 -14 30 -14
30 1 0 9 15 31 34 50 29 29 41 34 79 34 83 0 126 -63 91 -135 -10 -23 -46 -58
-94 -95 -93 -71 -147 -131 -160 -179 -21 -75 -31 -71 175 -71 l185 0 0 30 0
30 -145 0 c-82 0 -145 4 -145 9 0 19 55 74 131 131 42 33 88 74 100 91 30 43
37 124 14 172 -34 72 -148 98 -235 55z"/>
<path d="M3290 3091 c-68 -35 -100 -115 -80 -193 31 -111 173 -161 272 -95
101 69 93 239 -15 290 -47 23 -133 22 -177 -2z"/>
<path d="M3790 3012 l-35 -7 -3 -573 c-2 -631 -3 -625 58 -657 36 -18 136 -24
213 -11 l47 7 0 570 c0 619 0 619 -55 655 -29 19 -160 28 -225 16z"/>
<path d="M919 2710 c-174 -27 -318 -115 -334 -202 -3 -18 -5 -176 -3 -350 3
-303 4 -318 24 -345 34 -46 69 -57 170 -56 147 2 134 -32 134 352 l0 328 25
11 c46 21 120 15 152 -12 l28 -24 5 -285 c5 -270 6 -287 26 -314 11 -15 34
-34 50 -42 31 -16 152 -20 217 -7 l37 7 0 333 0 334 31 11 c73 25 164 3 174
-42 2 -12 6 -144 7 -294 3 -258 4 -273 24 -300 11 -15 34 -34 50 -42 32 -16
154 -20 217 -7 l38 7 -3 342 c-3 326 -5 345 -26 397 -43 109 -144 180 -284
201 -104 15 -209 0 -303 -44 l-70 -33 -40 23 c-86 49 -229 71 -346 53z"/>
<path d="M2434 2710 c-140 -20 -207 -51 -231 -108 -19 -46 -9 -113 21 -149
l23 -26 84 23 c96 26 241 32 301 11 42 -14 68 -44 68 -77 0 -20 -8 -22 -112
-33 -183 -20 -240 -31 -301 -58 -102 -46 -147 -120 -147 -243 0 -87 17 -134
67 -190 79 -87 212 -125 413 -117 183 8 287 43 354 118 l36 39 0 268 c0 309
-6 341 -71 416 -72 82 -180 123 -342 130 -56 3 -130 1 -163 -4z m266 -635 c0
-73 -1 -76 -27 -86 -15 -5 -58 -10 -96 -11 -89 -1 -122 20 -122 77 0 53 32 75
126 85 132 13 119 21 119 -65z"/>
<path d="M3248 2683 l-28 -4 0 -415 c0 -457 0 -458 61 -490 35 -17 136 -23
212 -10 l47 7 0 405 c0 431 -1 446 -50 489 -18 17 -37 20 -119 21 -53 1 -108
0 -123 -3z"/>
</g>
</svg>
