<svg id="svg" version="1.1" xmlns="http://www.w3.org/2000/svg" xmlns:xlink="http://www.w3.org/1999/xlink" width="400" height="400" viewBox="0, 0, 400,400"><g id="svgg"><path id="path0" d="M265.924 151.765 C 256.576 154.455,253.482 166.988,260.447 173.953 C 267.146 180.652,279.895 178.092,283.177 169.388 C 287.201 158.716,277.216 148.516,265.924 151.765 M306.800 158.983 C 306.470 159.063,304.922 159.336,303.361 159.589 L 300.522 160.051 300.263 165.725 C 299.820 175.402,299.954 246.405,300.422 249.871 C 301.595 258.563,309.459 261.297,324.307 258.172 L 325.213 257.981 325.107 211.891 L 325.000 165.800 324.137 164.200 C 321.974 160.192,319.663 159.144,312.600 158.968 C 309.740 158.897,307.130 158.904,306.800 158.983 M77.400 183.226 C 64.911 184.064,51.599 190.070,48.320 196.347 L 47.200 198.491 47.200 225.174 L 47.200 251.857 48.300 254.025 C 50.700 258.758,58.442 260.493,69.000 258.666 L 71.800 258.182 71.903 231.698 L 72.006 205.215 73.027 204.546 C 77.372 201.699,83.998 201.866,87.465 204.911 C 90.264 207.368,90.178 206.616,90.400 230.612 L 90.600 252.224 91.621 254.207 C 93.965 258.759,101.824 260.462,112.200 258.666 L 115.000 258.182 115.103 231.916 L 115.206 205.650 116.319 204.858 C 120.874 201.614,127.988 201.787,131.262 205.220 C 133.523 207.592,133.600 208.441,133.600 230.960 C 133.600 252.217,133.614 252.396,135.518 255.295 C 137.798 258.767,146.905 260.322,155.400 258.691 L 158.200 258.153 158.306 232.176 C 158.424 203.195,158.392 202.763,155.771 197.313 C 148.914 183.056,126.501 178.497,108.436 187.686 C 103.939 189.973,104.536 189.933,101.724 188.134 C 95.742 184.307,87.143 182.572,77.400 183.226 M201.600 183.074 C 180.450 183.905,171.653 190.594,177.116 201.691 C 179.090 205.701,179.477 205.929,182.510 204.877 C 196.321 200.085,211.451 200.568,215.055 205.915 C 217.546 209.613,216.710 211.381,212.276 211.786 C 210.694 211.931,207.960 212.211,206.200 212.408 C 204.440 212.605,201.110 212.968,198.800 213.214 C 179.276 215.297,171.180 222.018,171.206 236.125 C 171.236 253.024,185.703 261.754,211.282 260.310 C 225.383 259.514,236.301 255.039,239.715 248.655 C 240.935 246.373,241.315 211.246,240.188 204.919 C 237.525 189.961,223.817 182.201,201.600 183.074 M262.005 185.477 C 259.918 185.798,258.075 186.272,257.911 186.530 C 257.422 187.299,257.535 247.898,258.031 250.627 C 259.410 258.226,266.615 260.916,279.400 258.606 C 281.160 258.288,282.645 258.022,282.700 258.014 C 283.056 257.964,282.736 194.143,282.371 192.440 C 280.966 185.887,274.253 183.592,262.005 185.477 M216.394 233.900 C 216.387 240.826,216.492 240.577,213.185 241.475 C 202.296 244.433,192.728 239.759,195.968 233.065 C 197.542 229.816,203.021 228.231,213.300 228.054 L 216.400 228.000 216.394 233.900 " stroke="none" fill="#545454" fill-rule="evenodd"></path><path id="path1" d="M0.000 200.000 L 0.000 400.000 200.000 400.000 L 400.000 400.000 400.000 200.000 L 400.000 0.000 200.000 0.000 L 0.000 0.000 0.000 200.000 M342.000 107.698 C 347.204 109.278,349.728 113.040,349.720 119.200 C 349.711 125.591,347.967 128.054,338.314 135.307 C 332.389 139.759,328.128 144.395,329.083 145.349 C 329.221 145.487,334.433 145.600,340.667 145.600 L 352.000 145.600 352.000 148.000 L 352.000 150.400 337.200 150.400 L 322.400 150.400 322.400 148.460 C 322.400 143.054,326.945 136.800,335.400 130.574 C 342.337 125.465,344.150 123.061,344.150 118.971 C 344.150 110.235,331.913 109.357,327.784 117.797 L 326.719 119.973 324.788 118.994 C 322.234 117.700,322.191 117.576,323.433 115.040 C 326.682 108.405,334.347 105.373,342.000 107.698 M275.567 151.477 C 282.629 153.874,286.294 161.479,283.986 168.950 C 280.394 180.580,262.918 181.863,257.517 170.892 C 251.702 159.081,262.800 147.143,275.567 151.477 M319.310 159.201 C 321.862 160.156,323.583 161.739,324.860 164.308 L 325.800 166.200 325.914 212.039 C 326.009 250.140,325.937 257.954,325.489 258.327 C 324.392 259.237,317.194 260.090,312.369 259.882 C 305.542 259.587,302.540 258.020,300.499 253.685 C 299.651 251.884,299.175 160.667,300.009 159.830 C 301.483 158.350,315.789 157.883,319.310 159.201 M89.072 182.994 C 93.688 183.810,98.147 185.368,101.592 187.369 L 104.549 189.086 107.375 187.570 C 127.260 176.897,152.633 183.267,157.669 200.196 C 159.102 205.013,159.200 207.102,159.200 232.861 L 159.200 258.322 157.973 258.750 C 153.909 260.166,142.532 260.334,139.396 259.024 C 136.846 257.959,135.327 256.539,134.131 254.103 L 133.000 251.800 132.800 229.970 L 132.600 208.140 131.607 206.691 C 129.416 203.496,123.671 202.311,119.200 204.134 C 115.689 205.564,116.000 202.832,116.000 232.231 L 116.000 258.338 114.700 258.749 C 109.697 260.331,99.285 260.347,95.640 258.779 C 89.866 256.295,89.602 255.058,89.590 230.374 C 89.581 210.324,89.452 208.273,88.091 206.431 C 85.794 203.322,79.219 202.305,75.000 204.405 L 73.000 205.400 72.897 231.862 L 72.794 258.324 71.570 258.751 C 67.074 260.318,56.055 260.334,52.440 258.779 C 49.858 257.668,47.766 255.295,46.977 252.579 C 45.944 249.026,46.313 198.782,47.388 196.600 C 51.957 187.330,73.617 180.260,89.072 182.994 M213.724 182.979 C 228.004 185.122,236.261 190.755,239.910 200.842 L 240.980 203.800 241.113 224.874 C 241.272 250.191,241.435 249.232,236.235 253.452 C 224.960 262.604,196.219 264.025,182.040 256.132 C 172.539 250.843,167.776 237.901,171.693 228.022 C 175.674 217.985,182.412 214.347,200.600 212.414 C 202.800 212.180,206.822 211.722,209.537 211.395 C 212.252 211.068,214.750 210.800,215.089 210.800 C 215.942 210.800,215.574 207.662,214.554 206.249 C 211.022 201.350,195.481 201.039,182.482 205.608 C 178.569 206.983,175.200 202.657,175.200 196.255 C 175.200 188.252,180.268 184.922,195.600 182.853 C 199.827 182.282,209.534 182.350,213.724 182.979 M277.285 185.356 C 279.554 186.337,281.400 188.175,282.449 190.497 L 283.400 192.600 283.523 225.232 C 283.626 252.512,283.556 257.938,283.097 258.319 C 280.708 260.302,266.704 260.453,262.872 258.536 C 257.038 255.618,257.168 256.566,257.295 217.829 L 257.400 185.858 258.600 185.514 C 262.923 184.279,274.565 184.180,277.285 185.356 M209.140 229.008 C 200.359 229.801,197.683 230.747,196.549 233.460 C 195.264 236.535,197.166 240.064,200.675 241.115 C 204.263 242.190,214.003 241.368,215.508 239.864 C 216.241 239.130,215.811 228.361,215.052 228.457 C 214.803 228.489,212.143 228.737,209.140 229.008 " stroke="none" fill="#fbfbfb" fill-rule="evenodd"></path><path id="path2" d="M331.092 108.168 C 324.850 110.735,321.165 116.695,324.600 118.668 C 326.685 119.865,326.639 119.877,327.518 117.900 C 331.794 108.278,346.406 110.779,344.285 120.770 C 343.575 124.113,341.512 126.390,334.400 131.680 C 326.409 137.624,323.022 142.375,322.715 148.070 L 322.600 150.200 337.200 150.200 L 351.800 150.200 351.800 148.000 L 351.800 145.800 340.300 145.694 C 327.357 145.574,327.852 145.722,329.989 142.615 C 331.440 140.507,333.649 138.533,339.400 134.209 C 348.632 127.268,351.290 121.935,349.124 114.706 C 347.291 108.585,338.143 105.269,331.092 108.168 " stroke="none" fill="#fc5858" fill-rule="evenodd"></path><path id="path3" d="M346.400 110.600 C 347.146 111.370,347.847 112.000,347.957 112.000 C 348.067 112.000,347.546 111.370,346.800 110.600 C 346.054 109.830,345.353 109.200,345.243 109.200 C 345.133 109.200,345.654 109.830,346.400 110.600 M349.714 119.000 C 349.717 120.100,349.795 120.503,349.887 119.895 C 349.979 119.286,349.977 118.386,349.882 117.895 C 349.787 117.403,349.711 117.900,349.714 119.000 M340.581 126.500 L 339.000 128.200 340.700 126.619 C 342.281 125.148,342.584 124.800,342.281 124.800 C 342.216 124.800,341.451 125.565,340.581 126.500 M345.200 129.400 C 344.228 130.390,343.523 131.200,343.633 131.200 C 343.743 131.200,344.628 130.390,345.600 129.400 C 346.572 128.410,347.277 127.600,347.167 127.600 C 347.057 127.600,346.172 128.410,345.200 129.400 M332.000 140.200 C 331.028 141.190,330.323 142.000,330.433 142.000 C 330.543 142.000,331.428 141.190,332.400 140.200 C 333.372 139.210,334.077 138.400,333.967 138.400 C 333.857 138.400,332.972 139.210,332.000 140.200 M267.800 150.767 C 267.082 150.929,268.127 151.043,270.400 151.049 C 273.264 151.057,273.806 150.984,272.600 150.753 C 270.713 150.391,269.441 150.395,267.800 150.767 M264.400 151.600 C 263.867 151.945,263.867 151.988,264.400 151.988 C 264.730 151.988,265.270 151.813,265.600 151.600 C 266.133 151.255,266.133 151.212,265.600 151.212 C 265.270 151.212,264.730 151.387,264.400 151.600 M262.200 152.738 C 260.045 154.057,256.301 158.834,256.930 159.463 C 257.033 159.567,257.536 158.816,258.046 157.794 C 258.932 156.020,260.648 154.190,262.804 152.721 C 264.145 151.807,263.701 151.819,262.200 152.738 M279.347 153.720 C 279.978 154.262,280.938 155.222,281.480 155.853 L 282.466 157.000 281.617 155.716 C 281.150 155.010,280.190 154.050,279.484 153.583 L 278.200 152.734 279.347 153.720 M283.078 158.595 C 283.444 159.362,283.814 159.919,283.901 159.832 C 284.084 159.649,282.870 157.200,282.596 157.200 C 282.495 157.200,282.712 157.828,283.078 158.595 M304.200 158.800 C 302.537 159.223,304.174 159.242,306.200 158.823 C 307.545 158.545,307.609 158.492,306.600 158.493 C 305.940 158.494,304.860 158.632,304.200 158.800 M316.200 158.800 C 316.860 158.968,317.760 159.114,318.200 159.125 L 319.000 159.144 318.200 158.800 C 317.760 158.611,316.860 158.465,316.200 158.475 L 315.000 158.495 316.200 158.800 M300.080 159.680 C 299.711 160.049,299.623 170.633,299.697 205.380 L 299.795 250.600 299.997 205.218 L 300.200 159.836 301.200 159.558 C 302.038 159.325,302.067 159.273,301.380 159.240 C 300.929 159.218,300.344 159.416,300.080 159.680 M256.252 161.300 C 255.932 162.495,255.985 167.220,256.328 168.086 C 256.478 168.463,256.600 166.888,256.600 164.586 C 256.600 160.002,256.600 160.002,256.252 161.300 M284.182 164.600 C 284.182 166.758,284.303 168.091,284.451 167.562 C 284.599 167.033,284.720 165.700,284.720 164.600 C 284.720 163.500,284.599 162.167,284.451 161.638 C 284.303 161.109,284.182 162.442,284.182 164.600 M324.834 165.200 C 324.846 165.530,325.011 166.160,325.200 166.600 L 325.544 167.400 325.566 166.600 C 325.578 166.160,325.413 165.530,325.200 165.200 C 324.855 164.667,324.815 164.667,324.834 165.200 M282.855 170.768 C 280.575 175.570,276.529 177.800,270.098 177.800 C 266.862 177.800,265.962 177.896,266.898 178.141 C 273.027 179.748,281.161 176.021,283.442 170.561 C 284.346 168.396,283.907 168.551,282.855 170.768 M325.793 213.600 C 325.793 238.130,325.841 248.165,325.900 235.900 C 325.959 223.635,325.959 203.565,325.900 191.300 C 325.841 179.035,325.793 189.070,325.793 213.600 M258.221 172.200 C 259.192 173.908,260.558 175.294,262.082 176.121 C 263.351 176.808,263.364 176.808,262.417 176.117 C 261.176 175.212,259.220 173.262,258.270 171.983 C 257.546 171.010,257.546 171.012,258.221 172.200 M75.000 182.807 C 74.120 182.969,75.200 183.009,77.400 182.896 C 79.600 182.782,81.475 182.625,81.567 182.545 C 81.856 182.293,76.671 182.500,75.000 182.807 M82.033 182.545 C 82.125 182.625,83.730 182.787,85.600 182.906 C 87.556 183.031,88.490 182.990,87.800 182.809 C 86.600 182.495,81.719 182.271,82.033 182.545 M121.600 182.801 C 120.830 182.964,121.910 183.005,124.000 182.893 C 126.090 182.780,127.875 182.624,127.967 182.544 C 128.265 182.286,123.039 182.497,121.600 182.801 M128.433 182.544 C 128.525 182.624,130.130 182.781,132.000 182.894 C 133.872 183.008,134.861 182.964,134.200 182.797 C 132.986 182.491,128.126 182.278,128.433 182.544 M196.600 182.807 C 195.720 182.968,197.070 183.007,199.600 182.895 C 202.130 182.782,204.275 182.624,204.367 182.545 C 204.662 182.288,198.253 182.504,196.600 182.807 M205.233 182.544 C 205.325 182.624,207.290 182.785,209.600 182.903 C 212.340 183.042,213.244 183.000,212.200 182.781 C 210.635 182.454,204.904 182.259,205.233 182.544 M70.000 183.600 C 69.208 183.854,69.167 183.920,69.800 183.920 C 70.240 183.920,71.050 183.776,71.600 183.600 C 72.392 183.346,72.433 183.280,71.800 183.280 C 71.360 183.280,70.550 183.424,70.000 183.600 M90.800 183.600 C 92.168 184.038,93.219 184.038,92.200 183.600 C 91.760 183.411,91.040 183.262,90.600 183.268 C 89.957 183.277,89.996 183.343,90.800 183.600 M117.200 183.600 C 116.405 184.114,117.404 184.114,118.600 183.600 L 119.400 183.256 118.600 183.234 C 118.160 183.222,117.530 183.387,117.200 183.600 M137.200 183.600 C 138.568 184.038,139.619 184.038,138.600 183.600 C 138.160 183.411,137.440 183.262,137.000 183.268 C 136.357 183.277,136.396 183.343,137.200 183.600 M190.400 183.600 C 189.056 184.031,190.508 184.031,192.200 183.600 C 193.278 183.326,193.298 183.294,192.400 183.287 C 191.850 183.283,190.950 183.424,190.400 183.600 M216.000 183.600 C 216.550 183.776,217.360 183.920,217.800 183.920 C 218.433 183.920,218.392 183.854,217.600 183.600 C 217.050 183.424,216.240 183.280,215.800 183.280 C 215.167 183.280,215.208 183.346,216.000 183.600 M66.800 184.400 C 66.267 184.745,66.267 184.788,66.800 184.788 C 67.130 184.788,67.670 184.613,68.000 184.400 C 68.533 184.055,68.533 184.012,68.000 184.012 C 67.670 184.012,67.130 184.187,66.800 184.400 M186.600 184.400 C 186.096 184.617,186.022 184.744,186.400 184.744 C 186.730 184.744,187.360 184.589,187.800 184.400 C 188.304 184.183,188.378 184.056,188.000 184.056 C 187.670 184.056,187.040 184.211,186.600 184.400 M219.800 184.400 C 220.240 184.589,220.870 184.744,221.200 184.744 C 221.578 184.744,221.504 184.617,221.000 184.400 C 220.560 184.211,219.930 184.056,219.600 184.056 C 219.222 184.056,219.296 184.183,219.800 184.400 M266.716 184.697 C 268.099 184.775,270.259 184.774,271.516 184.695 C 272.772 184.616,271.640 184.552,269.000 184.553 C 266.360 184.553,265.332 184.618,266.716 184.697 M260.000 185.200 L 259.000 185.520 260.000 185.520 C 260.550 185.520,261.450 185.376,262.000 185.200 L 263.000 184.880 262.000 184.880 C 261.450 184.880,260.550 185.024,260.000 185.200 M275.400 185.200 C 276.596 185.714,277.595 185.714,276.800 185.200 C 276.470 184.987,275.840 184.822,275.400 184.834 L 274.600 184.856 275.400 185.200 M98.033 185.749 C 98.445 186.117,100.800 187.200,100.800 187.021 C 100.800 186.790,98.582 185.600,98.153 185.600 C 97.996 185.600,97.942 185.667,98.033 185.749 M144.400 185.779 C 144.400 185.889,144.940 186.259,145.600 186.600 C 146.260 186.941,146.800 187.131,146.800 187.021 C 146.800 186.911,146.260 186.541,145.600 186.200 C 144.940 185.859,144.400 185.669,144.400 185.779 M181.500 186.229 C 179.949 187.070,180.125 187.361,181.700 186.559 C 183.208 185.793,183.475 185.594,182.967 185.616 C 182.765 185.625,182.105 185.901,181.500 186.229 M257.384 186.100 C 257.279 186.375,257.240 201.090,257.297 218.800 L 257.400 251.000 257.600 218.300 C 257.710 200.315,257.749 185.600,257.687 185.600 C 257.626 185.600,257.489 185.825,257.384 186.100 M280.588 188.200 C 282.488 190.733,282.642 190.875,281.889 189.400 C 281.552 188.740,280.784 187.750,280.182 187.200 C 279.320 186.412,279.406 186.624,280.588 188.200 M101.200 187.309 C 101.200 187.748,104.514 189.639,104.751 189.335 C 104.895 189.151,104.942 189.039,104.854 189.086 C 104.766 189.133,103.908 188.711,102.947 188.148 C 101.986 187.585,101.200 187.207,101.200 187.309 M106.700 187.829 C 106.095 188.157,105.600 188.510,105.600 188.613 C 105.600 188.999,106.232 188.757,107.200 188.000 C 108.389 187.070,108.211 187.009,106.700 187.829 M148.000 187.870 C 150.137 189.416,153.234 192.583,154.430 194.447 C 155.731 196.474,156.370 197.067,155.566 195.500 C 154.366 193.163,150.629 189.271,148.241 187.873 C 147.060 187.182,147.048 187.181,148.000 187.870 M228.200 187.479 C 229.073 188.338,232.556 190.450,231.909 189.728 C 231.530 189.305,230.450 188.537,229.509 188.022 C 228.569 187.507,227.980 187.262,228.200 187.479 M177.229 189.491 C 176.553 190.311,176.011 191.166,176.024 191.391 C 176.036 191.616,176.261 191.461,176.524 191.046 C 176.786 190.632,177.421 189.777,177.936 189.146 C 178.450 188.516,178.778 188.000,178.665 188.000 C 178.551 188.000,177.905 188.671,177.229 189.491 M53.938 189.985 C 52.913 190.628,51.948 191.360,51.793 191.611 C 51.638 191.862,52.521 191.396,53.756 190.577 C 55.687 189.294,56.316 188.776,55.900 188.808 C 55.845 188.812,54.962 189.342,53.938 189.985 M234.605 192.500 C 235.676 193.765,236.621 194.800,236.704 194.800 C 237.027 194.800,235.205 192.538,233.965 191.400 C 233.125 190.629,233.354 191.023,234.605 192.500 M282.468 191.200 C 282.488 192.239,283.118 193.946,283.132 193.000 C 283.138 192.560,282.989 191.840,282.800 191.400 C 282.589 190.910,282.461 190.832,282.468 191.200 M49.796 193.204 C 49.166 193.862,48.766 194.400,48.907 194.400 C 49.272 194.400,51.280 192.347,51.095 192.162 C 51.011 192.077,50.426 192.546,49.796 193.204 M175.456 192.884 C 175.321 193.388,175.227 194.160,175.246 194.600 C 175.265 195.040,175.445 194.698,175.646 193.840 C 176.036 192.178,175.870 191.340,175.456 192.884 M238.278 197.795 C 238.644 198.562,239.014 199.119,239.101 199.032 C 239.284 198.849,238.070 196.400,237.796 196.400 C 237.695 196.400,237.912 197.028,238.278 197.795 M283.199 227.179 L 283.000 258.157 281.000 258.664 L 279.000 259.171 280.800 258.967 C 283.824 258.624,283.616 261.079,283.501 226.983 L 283.397 196.200 283.199 227.179 M175.268 198.000 C 175.262 198.550,175.411 199.360,175.600 199.800 L 175.944 200.600 175.932 199.800 C 175.926 199.360,175.776 198.550,175.600 198.000 L 175.280 197.000 175.268 198.000 M46.652 198.500 C 46.327 199.714,46.411 250.754,46.740 251.924 C 46.883 252.432,47.000 240.417,47.000 225.224 C 47.000 210.031,46.976 197.600,46.947 197.600 C 46.917 197.600,46.785 198.005,46.652 198.500 M157.656 201.200 C 157.656 201.530,157.811 202.160,158.000 202.600 C 158.217 203.104,158.344 203.178,158.344 202.800 C 158.344 202.470,158.189 201.840,158.000 201.400 C 157.783 200.896,157.656 200.822,157.656 201.200 M176.012 201.022 C 175.991 201.766,178.318 205.128,179.299 205.771 C 180.167 206.339,180.435 206.327,182.424 205.628 C 194.870 201.254,209.659 201.284,213.969 205.693 C 214.646 206.385,215.200 206.771,215.200 206.551 C 215.200 206.012,213.241 204.272,212.000 203.707 C 205.787 200.884,193.220 201.453,183.057 205.019 C 179.595 206.234,178.873 205.838,176.459 201.400 C 176.220 200.960,176.019 200.790,176.012 201.022 M240.068 202.400 C 240.088 203.439,240.718 205.146,240.732 204.200 C 240.738 203.760,240.589 203.040,240.400 202.600 C 240.189 202.110,240.061 202.032,240.068 202.400 M81.142 203.212 C 85.791 203.804,89.144 206.269,89.232 209.159 C 89.249 209.732,89.357 209.967,89.471 209.683 C 90.615 206.831,86.111 203.273,81.000 202.992 L 78.200 202.838 81.142 203.212 M121.000 203.165 C 119.280 203.643,117.600 204.346,117.600 204.587 C 117.600 204.701,118.365 204.480,119.300 204.097 C 123.167 202.512,128.627 203.354,130.987 205.900 C 131.544 206.500,132.000 206.778,132.000 206.516 C 132.000 206.024,130.092 204.458,128.480 203.625 C 127.307 203.020,122.571 202.729,121.000 203.165 M74.400 204.190 L 72.600 205.095 72.400 231.611 L 72.200 258.128 70.600 258.622 C 69.720 258.894,69.288 259.135,69.640 259.158 C 69.992 259.181,70.847 259.002,71.540 258.761 L 72.800 258.322 72.800 232.010 C 72.800 209.948,72.890 205.623,73.360 205.233 C 73.668 204.978,74.883 204.422,76.060 203.999 C 77.400 203.517,77.826 203.239,77.200 203.257 C 76.650 203.272,75.390 203.692,74.400 204.190 M158.600 231.206 L 158.600 258.174 157.000 258.656 C 156.120 258.922,155.688 259.152,156.040 259.169 C 156.392 259.186,157.247 259.002,157.940 258.761 L 159.200 258.322 159.153 232.461 C 159.127 218.237,158.992 206.069,158.853 205.419 C 158.714 204.770,158.600 216.374,158.600 231.206 M116.052 205.337 C 115.736 205.718,115.576 213.512,115.503 232.001 L 115.400 258.128 113.800 258.622 C 112.920 258.894,112.488 259.135,112.840 259.158 C 113.192 259.181,114.047 259.002,114.740 258.761 L 116.000 258.322 116.000 232.292 C 116.000 208.633,116.060 206.196,116.662 205.531 C 117.026 205.129,117.138 204.800,116.911 204.800 C 116.684 204.800,116.297 205.042,116.052 205.337 M240.986 226.400 C 240.986 237.730,241.037 242.365,241.100 236.700 C 241.162 231.035,241.162 221.765,241.100 216.100 C 241.037 210.435,240.986 215.070,240.986 226.400 M132.352 208.487 C 132.537 209.598,132.593 209.655,132.719 208.854 C 132.801 208.333,132.703 207.743,132.501 207.541 C 132.279 207.319,132.221 207.693,132.352 208.487 M215.489 208.893 C 215.697 210.741,215.697 210.742,214.349 210.923 L 213.000 211.104 214.400 211.052 C 215.914 210.996,216.553 209.318,215.665 207.730 C 215.394 207.246,215.342 207.590,215.489 208.893 M132.927 230.000 C 132.909 241.110,133.008 250.733,133.147 251.384 C 133.386 252.501,133.322 218.609,133.074 212.600 C 133.011 211.060,132.944 218.890,132.927 230.000 M89.721 230.600 C 89.698 241.600,89.797 251.017,89.940 251.528 C 90.182 252.392,90.130 220.888,89.877 213.800 C 89.814 212.040,89.744 219.600,89.721 230.600 M208.200 211.600 L 206.600 211.886 208.000 211.920 C 208.770 211.939,210.120 211.805,211.000 211.623 L 212.600 211.292 211.200 211.303 C 210.430 211.309,209.080 211.442,208.200 211.600 M200.800 212.400 C 199.429 212.689,199.425 212.695,200.600 212.724 C 201.260 212.741,202.520 212.605,203.400 212.423 L 205.000 212.092 203.600 212.099 C 202.830 212.102,201.570 212.238,200.800 212.400 M193.800 213.200 C 192.034 213.649,194.045 213.669,196.200 213.223 L 197.800 212.892 196.400 212.893 C 195.630 212.894,194.460 213.032,193.800 213.200 M189.400 214.000 L 188.600 214.344 189.400 214.344 C 189.840 214.344,190.560 214.189,191.000 214.000 L 191.800 213.656 191.000 213.656 C 190.560 213.656,189.840 213.811,189.400 214.000 M186.400 214.800 C 185.867 215.145,185.867 215.188,186.400 215.188 C 186.730 215.188,187.270 215.013,187.600 214.800 C 188.133 214.455,188.133 214.412,187.600 214.412 C 187.270 214.412,186.730 214.587,186.400 214.800 M179.526 217.961 C 178.519 218.599,177.572 219.321,177.422 219.565 C 177.174 219.965,180.462 217.948,181.380 217.136 C 182.148 216.457,181.309 216.830,179.526 217.961 M174.929 222.100 C 174.484 222.595,173.976 223.270,173.801 223.600 C 173.463 224.237,173.555 224.150,175.176 222.300 C 175.706 221.695,176.049 221.200,175.939 221.200 C 175.829 221.200,175.375 221.605,174.929 222.100 M171.473 228.553 C 171.323 228.945,171.211 229.566,171.225 229.933 C 171.242 230.375,171.381 230.274,171.637 229.634 C 171.849 229.103,171.961 228.482,171.885 228.254 C 171.809 228.027,171.624 228.161,171.473 228.553 M211.400 228.418 C 210.300 228.590,208.320 228.752,207.000 228.779 C 204.799 228.824,201.375 229.471,199.400 230.215 C 198.076 230.713,195.999 232.901,196.016 233.778 C 196.028 234.404,196.163 234.297,196.584 233.330 C 197.660 230.856,200.582 229.778,207.788 229.197 C 210.434 228.984,213.267 228.716,214.082 228.603 L 215.565 228.396 215.703 231.298 L 215.841 234.200 215.921 231.100 L 216.000 228.000 214.700 228.053 C 213.985 228.083,212.500 228.247,211.400 228.418 M170.581 233.838 C 170.426 235.288,170.461 237.583,170.658 238.938 C 170.982 241.152,171.019 240.887,171.022 236.300 C 171.027 230.472,170.973 230.175,170.581 233.838 M196.054 237.009 C 195.998 237.849,198.168 240.800,198.842 240.800 C 199.054 240.800,198.604 240.178,197.843 239.417 C 197.083 238.656,196.381 237.621,196.284 237.117 C 196.133 236.325,196.102 236.310,196.054 237.009 M211.600 241.200 L 210.600 241.520 211.600 241.554 C 212.150 241.573,212.870 241.413,213.200 241.200 C 213.964 240.706,213.142 240.706,211.600 241.200 M204.300 241.893 C 205.235 241.977,206.765 241.977,207.700 241.893 C 208.635 241.809,207.870 241.740,206.000 241.740 C 204.130 241.740,203.365 241.809,204.300 241.893 M171.234 242.400 C 171.246 242.730,171.411 243.360,171.600 243.800 L 171.944 244.600 171.966 243.800 C 171.978 243.360,171.813 242.730,171.600 242.400 C 171.255 241.867,171.215 241.867,171.234 242.400 M172.177 245.500 C 175.091 253.281,185.462 259.621,196.800 260.554 L 199.400 260.768 197.200 260.381 C 188.535 258.857,184.492 257.451,179.996 254.397 C 177.231 252.520,174.701 249.671,173.339 246.900 C 172.355 244.899,171.620 244.014,172.177 245.500 M239.787 248.970 C 238.790 251.072,235.192 254.163,231.778 255.850 C 230.136 256.661,228.866 257.399,228.956 257.489 C 229.260 257.793,234.189 255.116,235.936 253.697 C 238.898 251.292,241.253 248.320,240.664 247.730 C 240.556 247.623,240.162 248.181,239.787 248.970 M300.034 251.800 C 300.022 252.240,300.187 252.870,300.400 253.200 C 300.914 253.995,300.914 252.996,300.400 251.800 L 300.056 251.000 300.034 251.800 M257.632 251.913 C 257.582 252.710,258.780 255.353,259.062 255.071 C 259.201 254.933,259.133 254.590,258.911 254.310 C 258.689 254.029,258.317 253.260,258.085 252.600 C 257.853 251.940,257.649 251.631,257.632 251.913 M90.625 253.600 C 91.858 258.455,100.273 261.171,109.600 259.724 C 111.278 259.464,110.138 259.381,104.800 259.375 C 95.669 259.365,93.435 258.511,91.183 254.165 C 90.688 253.210,90.470 252.990,90.625 253.600 M133.600 252.953 C 133.600 253.382,134.790 255.600,135.021 255.600 C 135.131 255.600,134.923 255.015,134.559 254.300 C 133.817 252.840,133.600 252.536,133.600 252.953 M47.200 253.545 C 47.200 254.171,49.705 257.256,50.785 257.959 C 51.326 258.311,50.921 257.750,49.885 256.711 C 48.848 255.671,48.000 254.557,48.000 254.234 C 48.000 253.911,47.820 253.536,47.600 253.400 C 47.380 253.264,47.200 253.329,47.200 253.545 M300.824 254.228 C 300.617 257.991,310.791 261.033,319.200 259.723 C 320.896 259.459,319.843 259.378,314.600 259.372 C 305.909 259.363,303.958 258.653,301.324 254.543 C 301.061 254.134,300.836 253.993,300.824 254.228 M260.001 256.537 C 260.551 257.162,261.360 257.859,261.800 258.086 C 262.642 258.520,262.618 258.493,260.401 256.597 L 259.003 255.400 260.001 256.537 M135.802 256.802 C 136.202 257.244,136.611 257.522,136.712 257.421 C 136.928 257.205,135.788 256.000,135.367 256.000 C 135.207 256.000,135.403 256.361,135.802 256.802 M137.200 257.837 C 137.200 259.297,147.375 260.506,153.000 259.715 C 154.856 259.453,153.768 259.375,148.200 259.369 C 141.676 259.363,140.822 259.281,139.100 258.495 C 138.055 258.018,137.200 257.722,137.200 257.837 M225.200 258.416 C 223.990 258.809,222.307 259.249,221.459 259.392 C 220.612 259.535,220.022 259.755,220.149 259.882 C 220.429 260.163,225.591 258.941,227.340 258.179 C 229.092 257.417,227.845 257.555,225.200 258.416 M53.200 259.039 C 54.934 259.844,63.121 260.227,66.600 259.665 C 68.562 259.348,68.050 259.313,63.800 259.473 C 59.159 259.646,54.909 259.327,52.600 258.630 C 52.160 258.497,52.430 258.681,53.200 259.039 M264.000 259.038 C 265.742 259.842,273.663 260.234,276.800 259.671 C 278.615 259.346,278.159 259.310,274.200 259.470 C 269.939 259.641,266.768 259.390,263.600 258.631 C 262.959 258.477,263.102 258.623,264.000 259.038 M322.400 258.800 L 321.400 259.120 322.400 259.120 C 322.950 259.120,323.850 258.976,324.400 258.800 L 325.400 258.480 324.400 258.480 C 323.850 258.480,322.950 258.624,322.400 258.800 M214.800 260.400 L 213.400 260.695 214.800 260.718 C 215.570 260.730,217.010 260.597,218.000 260.420 L 219.800 260.100 218.000 260.103 C 217.010 260.104,215.570 260.238,214.800 260.400 M202.900 261.098 C 204.825 261.171,207.975 261.171,209.900 261.098 C 211.825 261.025,210.250 260.965,206.400 260.965 C 202.550 260.965,200.975 261.025,202.900 261.098 " stroke="none" fill="#a6a4a4" fill-rule="evenodd"></path><path id="path4" d="M265.600 151.618 C 265.162 151.915,265.324 151.952,266.200 151.756 C 267.671 151.427,267.990 151.198,266.967 151.206 C 266.545 151.209,265.930 151.395,265.600 151.618 M273.233 151.344 C 273.325 151.423,273.940 151.608,274.600 151.756 C 275.476 151.952,275.638 151.915,275.200 151.618 C 274.660 151.253,272.832 150.998,273.233 151.344 M276.600 152.459 C 278.954 153.739,280.555 155.127,281.679 156.863 C 282.990 158.886,283.571 159.447,282.752 157.900 C 281.431 155.404,277.630 151.973,276.231 152.012 C 275.994 152.019,276.160 152.220,276.600 152.459 M259.847 155.201 C 259.051 156.082,258.400 156.928,258.400 157.081 C 258.400 157.235,258.535 157.189,258.701 156.980 C 258.867 156.771,259.622 155.925,260.380 155.100 C 261.137 154.275,261.653 153.600,261.525 153.600 C 261.397 153.600,260.642 154.321,259.847 155.201 M309.513 158.695 C 310.676 158.776,312.476 158.776,313.513 158.693 C 314.551 158.611,313.600 158.545,311.400 158.546 C 309.200 158.547,308.351 158.614,309.513 158.695 M283.444 160.200 C 283.773 161.671,284.002 161.990,283.994 160.967 C 283.991 160.545,283.805 159.930,283.582 159.600 C 283.285 159.162,283.248 159.324,283.444 160.200 M301.200 159.557 C 300.225 159.827,300.199 159.931,300.178 163.617 L 300.157 167.400 300.292 163.741 L 300.428 160.081 302.314 159.688 C 303.351 159.472,303.750 159.291,303.200 159.287 C 302.650 159.283,301.750 159.405,301.200 159.557 M321.952 161.404 C 322.807 162.177,323.732 163.352,324.007 164.017 C 324.282 164.682,324.587 165.147,324.683 165.050 C 325.220 164.513,321.664 160.008,320.699 160.002 C 320.533 160.001,321.097 160.632,321.952 161.404 M256.534 164.400 C 256.534 166.050,256.605 166.725,256.691 165.900 C 256.778 165.075,256.778 163.725,256.691 162.900 C 256.605 162.075,256.534 162.750,256.534 164.400 M284.114 164.600 C 284.117 165.700,284.195 166.103,284.287 165.495 C 284.379 164.886,284.377 163.986,284.282 163.495 C 284.187 163.003,284.111 163.500,284.114 164.600 M325.200 212.567 C 325.200 248.486,325.096 257.975,324.700 258.135 C 324.401 258.256,324.482 258.350,324.900 258.368 C 325.563 258.398,325.600 255.974,325.600 212.800 C 325.600 187.720,325.510 167.200,325.400 167.200 C 325.290 167.200,325.200 187.615,325.200 212.567 M257.600 170.539 C 257.600 171.015,259.387 173.590,259.720 173.595 C 259.897 173.598,259.544 172.925,258.937 172.100 C 258.329 171.275,257.780 170.525,257.716 170.433 C 257.652 170.342,257.600 170.389,257.600 170.539 M280.121 173.847 C 278.977 175.034,278.363 175.834,278.755 175.624 C 279.474 175.239,282.400 172.169,282.400 171.799 C 282.400 171.490,282.329 171.553,280.121 173.847 M260.805 174.704 C 260.810 175.035,263.609 176.931,263.794 176.729 C 263.859 176.658,263.212 176.107,262.356 175.504 C 261.500 174.901,260.802 174.541,260.805 174.704 M268.900 177.891 C 269.725 177.978,271.075 177.978,271.900 177.891 C 272.725 177.805,272.050 177.734,270.400 177.734 C 268.750 177.734,268.075 177.805,268.900 177.891 M77.500 183.089 C 78.215 183.178,79.385 183.178,80.100 183.089 C 80.815 183.001,80.230 182.928,78.800 182.928 C 77.370 182.928,76.785 183.001,77.500 183.089 M83.705 183.087 C 84.314 183.179,85.214 183.177,85.705 183.082 C 86.197 182.987,85.700 182.911,84.600 182.914 C 83.500 182.917,83.097 182.995,83.705 183.087 M123.907 183.090 C 124.626 183.179,125.706 183.177,126.307 183.086 C 126.908 182.995,126.320 182.922,125.000 182.924 C 123.680 182.926,123.188 183.001,123.907 183.090 M130.100 183.087 C 130.705 183.178,131.695 183.178,132.300 183.087 C 132.905 182.995,132.410 182.920,131.200 182.920 C 129.990 182.920,129.495 182.995,130.100 183.087 M199.700 183.091 C 200.525 183.178,201.875 183.178,202.700 183.091 C 203.525 183.005,202.850 182.934,201.200 182.934 C 199.550 182.934,198.875 183.005,199.700 183.091 M206.691 183.089 C 207.401 183.177,208.661 183.179,209.491 183.092 C 210.321 183.005,209.740 182.933,208.200 182.931 C 206.660 182.929,205.981 183.000,206.691 183.089 M71.600 183.600 C 70.256 184.031,71.708 184.031,73.400 183.600 C 74.478 183.326,74.498 183.294,73.600 183.287 C 73.050 183.283,72.150 183.424,71.600 183.600 M118.600 183.619 C 118.042 183.871,118.285 183.907,119.400 183.738 C 120.280 183.604,121.075 183.428,121.167 183.347 C 121.510 183.044,119.368 183.271,118.600 183.619 M192.200 183.615 C 191.444 183.818,191.962 183.854,193.600 183.715 C 195.030 183.593,196.275 183.428,196.367 183.347 C 196.670 183.080,193.422 183.289,192.200 183.615 M212.833 183.349 C 212.925 183.431,213.900 183.601,215.000 183.728 C 216.349 183.884,216.674 183.849,216.000 183.620 C 215.001 183.280,212.518 183.068,212.833 183.349 M68.000 184.418 C 67.562 184.715,67.724 184.752,68.600 184.556 C 70.071 184.227,70.390 183.998,69.367 184.006 C 68.945 184.009,68.330 184.195,68.000 184.418 M115.400 184.400 C 114.896 184.617,114.822 184.744,115.200 184.744 C 115.530 184.744,116.160 184.589,116.600 184.400 C 117.104 184.183,117.178 184.056,116.800 184.056 C 116.470 184.056,115.840 184.211,115.400 184.400 M187.800 184.400 C 186.781 184.838,187.832 184.838,189.200 184.400 C 190.004 184.143,190.043 184.077,189.400 184.068 C 188.960 184.062,188.240 184.211,187.800 184.400 M218.400 184.400 C 219.768 184.838,220.819 184.838,219.800 184.400 C 219.360 184.211,218.640 184.062,218.200 184.068 C 217.557 184.077,217.596 184.143,218.400 184.400 M262.000 185.213 C 261.354 185.429,261.780 185.466,263.200 185.319 C 264.410 185.194,265.475 185.026,265.567 184.946 C 265.887 184.665,262.991 184.883,262.000 185.213 M272.433 184.944 C 272.525 185.024,273.410 185.196,274.400 185.327 C 275.602 185.486,275.934 185.447,275.400 185.210 C 274.636 184.872,272.086 184.643,272.433 184.944 M257.867 185.867 C 257.720 186.013,257.603 186.328,257.606 186.567 C 257.610 186.855,257.711 186.846,257.906 186.540 C 258.068 186.288,258.650 185.997,259.200 185.895 L 260.200 185.709 259.167 185.654 C 258.598 185.625,258.013 185.720,257.867 185.867 M179.779 187.700 C 178.727 188.415,177.607 189.450,177.290 190.000 C 176.779 190.885,176.813 190.873,177.593 189.895 C 178.077 189.288,179.267 188.326,180.237 187.757 C 181.803 186.840,182.324 186.400,181.845 186.400 C 181.760 186.400,180.830 186.985,179.779 187.700 M278.433 186.500 C 278.525 186.555,279.140 187.050,279.800 187.600 L 281.000 188.600 280.030 187.500 C 279.497 186.895,278.882 186.400,278.664 186.400 C 278.445 186.400,278.342 186.445,278.433 186.500 M57.500 188.226 C 56.455 188.770,55.600 189.305,55.600 189.414 C 55.600 189.593,59.560 187.723,59.967 187.352 C 60.462 186.901,59.161 187.362,57.500 188.226 M151.200 191.000 C 152.395 192.210,153.463 193.200,153.573 193.200 C 153.683 193.200,152.795 192.210,151.600 191.000 C 150.405 189.790,149.337 188.800,149.227 188.800 C 149.117 188.800,150.005 189.790,151.200 191.000 M231.000 189.677 C 231.660 190.184,232.920 191.205,233.800 191.946 C 234.854 192.833,234.732 192.657,233.443 191.430 C 232.367 190.406,231.107 189.385,230.643 189.162 C 230.180 188.938,230.340 189.171,231.000 189.677 M282.711 224.866 C 282.800 251.196,282.721 257.811,282.311 258.100 C 281.923 258.374,281.944 258.422,282.400 258.297 C 283.059 258.117,283.541 195.630,282.902 193.162 C 282.736 192.519,282.650 206.786,282.711 224.866 M235.717 194.250 C 236.111 194.718,237.052 196.248,237.808 197.650 C 238.564 199.053,239.186 200.045,239.191 199.856 C 239.209 199.161,236.686 194.823,235.856 194.122 C 235.005 193.404,235.004 193.405,235.717 194.250 M48.071 195.959 C 47.592 196.811,47.200 197.740,47.200 198.022 C 47.200 198.305,47.644 197.659,48.186 196.587 C 49.376 194.238,49.293 193.786,48.071 195.959 M175.287 196.000 C 175.283 196.550,175.424 197.450,175.600 198.000 C 176.031 199.344,176.031 197.892,175.600 196.200 C 175.326 195.122,175.294 195.102,175.287 196.000 M46.989 225.000 C 46.989 239.300,47.039 245.092,47.100 237.871 C 47.161 230.650,47.161 218.950,47.100 211.871 C 47.039 204.792,46.989 210.700,46.989 225.000 M176.009 199.916 C 175.996 200.659,177.498 203.491,178.094 203.850 C 178.495 204.090,178.499 204.029,178.115 203.554 C 177.848 203.224,177.267 202.154,176.824 201.177 C 176.380 200.200,176.014 199.632,176.009 199.916 M239.444 201.400 C 239.773 202.871,240.002 203.190,239.994 202.167 C 239.991 201.745,239.805 201.130,239.582 200.800 C 239.285 200.362,239.248 200.524,239.444 201.400 M194.400 202.001 C 193.630 202.164,194.710 202.205,196.800 202.093 C 198.890 201.980,200.675 201.824,200.767 201.744 C 201.065 201.486,195.839 201.697,194.400 202.001 M202.033 201.744 C 202.125 201.824,203.550 201.989,205.200 202.111 C 206.976 202.242,207.792 202.199,207.200 202.006 C 206.223 201.687,201.703 201.458,202.033 201.744 M157.862 203.400 C 157.996 204.280,158.172 205.075,158.253 205.167 C 158.556 205.510,158.329 203.368,157.981 202.600 C 157.729 202.042,157.693 202.285,157.862 203.400 M77.515 202.728 C 77.138 202.878,78.454 203.000,80.439 203.000 C 82.423 203.000,83.632 202.883,83.124 202.740 C 81.896 202.394,78.375 202.387,77.515 202.728 M121.276 202.740 C 120.768 202.883,121.994 203.000,124.000 203.000 C 126.006 203.000,127.232 202.883,126.724 202.740 C 126.216 202.597,124.990 202.480,124.000 202.480 C 123.010 202.480,121.784 202.597,121.276 202.740 M189.800 202.800 C 188.781 203.238,189.832 203.238,191.200 202.800 C 192.004 202.543,192.043 202.477,191.400 202.468 C 190.960 202.462,190.240 202.611,189.800 202.800 M73.800 204.119 L 72.200 205.025 72.000 231.675 C 71.890 246.332,71.935 258.240,72.100 258.138 C 72.265 258.036,72.400 246.073,72.400 231.554 L 72.400 205.155 74.200 204.359 C 75.190 203.921,76.000 203.481,76.000 203.381 C 76.000 203.019,75.368 203.231,73.800 204.119 M129.200 204.045 C 129.970 204.508,130.960 205.183,131.400 205.544 C 132.200 206.200,132.200 206.200,131.401 205.259 C 130.961 204.742,130.115 204.067,129.521 203.759 C 127.856 202.898,127.629 203.100,129.200 204.045 M186.600 203.600 C 186.096 203.817,186.022 203.944,186.400 203.944 C 186.730 203.944,187.360 203.789,187.800 203.600 C 188.304 203.383,188.378 203.256,188.000 203.256 C 187.670 203.256,187.040 203.411,186.600 203.600 M240.272 205.000 C 240.399 206.100,240.569 207.075,240.651 207.167 C 240.932 207.482,240.720 204.999,240.380 204.000 C 240.151 203.326,240.116 203.651,240.272 205.000 M87.647 205.382 C 88.223 206.052,88.893 206.960,89.135 207.400 C 89.377 207.840,89.581 207.968,89.588 207.685 C 89.595 207.401,88.925 206.493,88.100 205.667 C 87.265 204.830,87.064 204.704,87.647 205.382 M115.655 205.334 C 115.145 205.949,114.792 258.452,115.300 258.138 C 115.465 258.036,115.600 246.209,115.600 231.856 C 115.600 212.093,115.716 205.644,116.080 205.280 C 116.344 205.016,116.456 204.800,116.329 204.800 C 116.202 204.800,115.898 205.040,115.655 205.334 M158.400 232.280 C 158.290 246.624,158.336 258.224,158.503 258.057 C 158.670 257.890,158.760 246.154,158.703 231.977 L 158.600 206.200 158.400 232.280 M133.104 225.816 C 133.162 235.707,133.260 245.240,133.323 247.000 C 133.386 248.760,133.453 241.200,133.471 230.200 C 133.490 219.200,133.392 209.667,133.253 209.016 C 133.114 208.364,133.047 215.924,133.104 225.816 M89.905 226.634 C 89.963 236.735,90.062 246.260,90.126 247.800 C 90.189 249.340,90.266 241.780,90.297 231.000 C 90.329 220.220,90.229 210.695,90.077 209.834 C 89.925 208.973,89.847 216.533,89.905 226.634 M215.952 209.913 C 215.821 210.707,215.879 211.081,216.101 210.859 C 216.303 210.657,216.401 210.067,216.319 209.546 C 216.193 208.745,216.137 208.802,215.952 209.913 M211.200 211.600 C 209.201 212.021,211.252 212.038,213.600 211.620 C 215.224 211.332,215.263 211.300,214.000 211.303 C 213.230 211.304,211.970 211.438,211.200 211.600 M203.600 212.421 C 202.699 212.624,203.197 212.659,205.000 212.519 C 206.540 212.399,207.875 212.234,207.967 212.151 C 208.252 211.892,205.071 212.089,203.600 212.421 M196.400 213.200 C 194.401 213.621,196.452 213.638,198.800 213.220 C 200.424 212.932,200.463 212.900,199.200 212.903 C 198.430 212.904,197.170 213.038,196.400 213.200 M191.000 214.019 C 190.442 214.271,190.685 214.307,191.800 214.138 C 192.680 214.004,193.475 213.828,193.567 213.747 C 193.910 213.444,191.768 213.671,191.000 214.019 M187.600 214.818 C 187.162 215.115,187.324 215.152,188.200 214.956 C 189.671 214.627,189.990 214.398,188.967 214.406 C 188.545 214.409,187.930 214.595,187.600 214.818 M178.154 219.286 C 176.026 220.920,172.794 225.083,172.804 226.178 C 172.806 226.410,173.332 225.686,173.973 224.568 C 174.614 223.451,176.156 221.606,177.401 220.468 C 179.779 218.295,180.099 217.793,178.154 219.286 M208.200 228.400 C 206.291 228.662,206.272 228.676,207.800 228.702 C 208.680 228.717,210.300 228.590,211.400 228.418 C 214.099 227.998,211.250 227.982,208.200 228.400 M216.161 234.000 C 216.161 237.410,216.222 238.805,216.297 237.100 C 216.372 235.395,216.372 232.605,216.297 230.900 C 216.222 229.195,216.161 230.590,216.161 234.000 M201.800 229.200 C 200.781 229.638,201.832 229.638,203.200 229.200 C 204.004 228.943,204.043 228.877,203.400 228.868 C 202.960 228.862,202.240 229.011,201.800 229.200 M171.400 230.400 C 171.248 231.091,171.207 231.741,171.309 231.842 C 171.411 231.944,171.609 231.453,171.750 230.750 C 172.083 229.083,171.760 228.760,171.400 230.400 M197.600 230.913 C 197.270 231.181,196.737 231.760,196.415 232.200 C 196.094 232.640,196.409 232.471,197.115 231.825 C 198.267 230.772,198.600 230.375,198.300 230.413 C 198.245 230.420,197.930 230.645,197.600 230.913 M195.431 234.300 C 195.303 234.905,195.350 235.940,195.535 236.600 C 195.819 237.610,195.873 237.436,195.879 235.500 C 195.886 232.949,195.778 232.659,195.431 234.300 M170.920 236.000 C 170.920 237.210,170.995 237.705,171.087 237.100 C 171.178 236.495,171.178 235.505,171.087 234.900 C 170.995 234.295,170.920 234.790,170.920 236.000 M196.314 238.604 C 196.541 239.047,197.148 239.766,197.663 240.202 C 198.567 240.966,198.565 240.952,197.606 239.797 C 196.013 237.879,195.879 237.755,196.314 238.604 M171.206 240.833 C 171.209 241.365,171.389 242.070,171.606 242.400 C 171.882 242.822,171.923 242.585,171.742 241.600 C 171.425 239.875,171.198 239.549,171.206 240.833 M201.826 242.053 C 203.437 242.399,208.265 242.414,210.159 242.077 C 211.084 241.913,209.468 241.800,206.185 241.800 C 203.142 241.800,201.180 241.914,201.826 242.053 M172.805 245.781 C 172.797 246.408,175.339 250.400,175.747 250.400 C 175.954 250.400,175.840 250.085,175.493 249.700 C 175.147 249.315,174.401 248.190,173.836 247.200 C 173.272 246.210,172.807 245.571,172.805 245.781 M300.028 249.433 C 300.044 250.295,300.209 251.360,300.396 251.800 C 300.608 252.298,300.651 251.769,300.512 250.400 C 300.244 247.765,299.989 247.257,300.028 249.433 M257.628 250.233 C 257.644 250.875,257.816 251.760,258.010 252.200 C 258.247 252.734,258.286 252.402,258.127 251.200 C 257.846 249.080,257.588 248.580,257.628 250.233 M236.600 252.286 C 235.280 253.524,234.740 254.162,235.400 253.703 C 236.551 252.904,239.548 249.981,239.178 250.018 C 239.080 250.028,237.920 251.049,236.600 252.286 M176.800 251.750 C 177.350 252.371,178.340 253.250,179.000 253.704 C 180.426 254.685,180.043 254.264,177.600 252.168 C 176.404 251.141,176.136 251.001,176.800 251.750 M91.200 254.169 C 91.200 254.876,93.269 257.215,94.421 257.811 C 95.069 258.146,95.600 258.331,95.600 258.221 C 95.600 258.111,95.065 257.744,94.411 257.406 C 93.758 257.068,92.768 256.121,92.211 255.303 C 91.655 254.484,91.200 253.974,91.200 254.169 M134.873 255.000 C 135.123 255.550,135.484 256.000,135.673 256.000 C 135.863 256.000,135.724 255.550,135.363 255.000 C 135.003 254.450,134.643 254.000,134.563 254.000 C 134.483 254.000,134.622 254.450,134.873 255.000 M232.700 255.029 C 231.205 255.840,231.296 256.178,232.800 255.400 C 233.460 255.059,234.000 254.694,234.000 254.590 C 234.000 254.332,233.957 254.347,232.700 255.029 M259.202 255.069 C 259.200 255.621,262.349 258.401,262.972 258.397 C 263.207 258.396,262.860 258.041,262.200 257.609 C 261.540 257.177,260.596 256.324,260.102 255.712 C 259.608 255.100,259.203 254.811,259.202 255.069 M302.082 255.600 C 302.714 256.653,305.010 258.401,305.759 258.399 C 306.002 258.398,305.570 258.025,304.800 257.570 C 304.030 257.116,302.969 256.261,302.441 255.672 C 301.512 254.633,301.501 254.630,302.082 255.600 M181.600 255.396 C 181.600 255.670,184.049 256.884,184.232 256.701 C 184.319 256.614,183.762 256.244,182.995 255.878 C 182.228 255.512,181.600 255.295,181.600 255.396 M50.167 256.962 C 51.028 257.753,51.928 258.389,52.167 258.376 C 52.405 258.364,52.261 258.139,51.846 257.876 C 51.432 257.614,50.532 256.978,49.846 256.462 C 49.029 255.847,49.139 256.019,50.167 256.962 M136.800 257.154 C 136.800 257.483,138.809 258.524,139.026 258.307 C 139.093 258.240,138.620 257.882,137.974 257.511 C 137.328 257.140,136.800 256.980,136.800 257.154 M53.400 258.800 C 53.840 258.989,54.560 259.138,55.000 259.132 C 55.643 259.123,55.604 259.057,54.800 258.800 C 53.432 258.362,52.381 258.362,53.400 258.800 M68.000 258.800 C 66.633 259.088,66.628 259.095,67.800 259.119 C 68.460 259.133,69.360 258.989,69.800 258.800 C 70.762 258.387,69.964 258.387,68.000 258.800 M96.800 258.782 C 97.130 259.005,97.745 259.191,98.167 259.194 C 99.190 259.202,98.871 258.973,97.400 258.644 C 96.524 258.448,96.362 258.485,96.800 258.782 M111.200 258.800 C 109.833 259.088,109.828 259.095,111.000 259.119 C 111.660 259.133,112.560 258.989,113.000 258.800 C 113.962 258.387,113.164 258.387,111.200 258.800 M140.000 258.782 C 140.330 259.005,140.945 259.191,141.367 259.194 C 142.390 259.202,142.071 258.973,140.600 258.644 C 139.724 258.448,139.562 258.485,140.000 258.782 M154.600 258.800 C 153.522 259.074,153.502 259.106,154.400 259.113 C 154.950 259.117,155.850 258.976,156.400 258.800 C 157.744 258.369,156.292 258.369,154.600 258.800 M222.800 258.800 C 221.996 259.057,221.957 259.123,222.600 259.132 C 223.040 259.138,223.760 258.989,224.200 258.800 C 225.219 258.362,224.168 258.362,222.800 258.800 M264.400 258.782 C 264.730 259.005,265.345 259.191,265.767 259.194 C 266.790 259.202,266.471 258.973,265.000 258.644 C 264.124 258.448,263.962 258.485,264.400 258.782 M278.200 258.800 C 277.122 259.074,277.102 259.106,278.000 259.113 C 278.550 259.117,279.450 258.976,280.000 258.800 C 281.344 258.369,279.892 258.369,278.200 258.800 M306.800 258.782 C 307.130 259.005,307.745 259.191,308.167 259.194 C 309.190 259.202,308.871 258.973,307.400 258.644 C 306.524 258.448,306.362 258.485,306.800 258.782 M320.600 258.800 C 319.522 259.074,319.502 259.106,320.400 259.113 C 320.950 259.117,321.850 258.976,322.400 258.800 C 323.744 258.369,322.292 258.369,320.600 258.800 M59.113 259.495 C 60.276 259.576,62.076 259.576,63.113 259.493 C 64.151 259.411,63.200 259.345,61.000 259.346 C 58.800 259.347,57.951 259.414,59.113 259.495 M102.313 259.495 C 103.476 259.576,105.276 259.576,106.313 259.493 C 107.351 259.411,106.400 259.345,104.200 259.346 C 102.000 259.347,101.151 259.414,102.313 259.495 M145.513 259.495 C 146.676 259.576,148.476 259.576,149.513 259.493 C 150.551 259.411,149.600 259.345,147.400 259.346 C 145.200 259.347,144.351 259.414,145.513 259.495 M192.800 259.600 C 193.350 259.776,194.160 259.920,194.600 259.920 C 195.233 259.920,195.192 259.854,194.400 259.600 C 193.850 259.424,193.040 259.280,192.600 259.280 C 191.967 259.280,192.008 259.346,192.800 259.600 M218.800 259.600 L 217.800 259.920 218.800 259.932 C 219.350 259.938,220.160 259.789,220.600 259.600 L 221.400 259.256 220.600 259.268 C 220.160 259.274,219.350 259.424,218.800 259.600 M269.700 259.494 C 270.745 259.576,272.455 259.576,273.500 259.494 C 274.545 259.412,273.690 259.344,271.600 259.344 C 269.510 259.344,268.655 259.412,269.700 259.494 M312.100 259.494 C 313.145 259.576,314.855 259.576,315.900 259.494 C 316.945 259.412,316.090 259.344,314.000 259.344 C 311.910 259.344,311.055 259.412,312.100 259.494 M198.200 260.431 C 199.781 260.750,205.889 260.935,205.567 260.655 C 205.475 260.575,203.420 260.420,201.000 260.310 C 198.256 260.185,197.202 260.230,198.200 260.431 M209.800 260.400 L 206.200 260.649 209.600 260.701 C 211.470 260.730,213.720 260.605,214.600 260.423 L 216.200 260.092 214.800 260.122 C 214.030 260.138,211.780 260.263,209.800 260.400 " stroke="none" fill="#9c9c9c" fill-rule="evenodd"></path></g></svg>